<?xml version="1.0" encoding="UTF-8"?>
<svg width="380px" height="134px" viewBox="0 0 380 134" version="1.1" xmlns="http://www.w3.org/2000/svg" xmlns:xlink="http://www.w3.org/1999/xlink">
    <!-- Generator: Sketch 52.6 (67491) - http://www.bohemiancoding.com/sketch -->
    <title>Fill 2</title>
    <desc>Created with Sketch.</desc>
    <g id="Page-1" stroke="none" stroke-width="1" fill="none" fill-rule="evenodd">
        <g id="KeepTravel" transform="translate(-170.000000, -293.000000)" fill="#00AAFF">
            <path d="M170.211,301.71 C170.211,297.164 173.896,293.479 178.441,293.479 C182.987,293.479 186.672,297.164 186.672,301.71 L186.672,344.232 L230.774,296.147 C233.846,292.81 239.043,292.594 242.381,295.665 C245.719,298.737 245.934,303.934 242.863,307.272 L184.844,370.53 C183.335,372.395 181.028,373.589 178.441,373.589 C173.896,373.589 170.211,369.904 170.211,365.358 L170.211,301.71 Z M503.938,342.71 C499.393,342.71 495.708,339.025 495.708,334.479 C495.708,329.934 499.393,326.249 503.938,326.249 L526.541,326.249 C535.19,326.249 537.31,309.94 525.774,309.94 L487.477,309.94 L487.477,365.358 C487.477,369.904 483.792,373.589 479.247,373.589 C474.701,373.589 471.016,369.904 471.016,365.358 L471.016,301.71 C471.016,297.164 474.701,293.479 479.247,293.479 L532.352,293.479 C555.629,293.479 555.703,342.71 531.962,342.71 L503.938,342.71 Z M379.011,293.479 L442.073,293.479 C446.619,293.479 450.304,297.164 450.304,301.71 C450.304,306.255 446.619,309.94 442.073,309.94 L387.241,309.94 L387.241,326.249 L428.846,326.249 C433.392,326.249 437.077,329.934 437.077,334.479 C437.077,339.025 433.392,342.71 428.846,342.71 L387.241,342.71 L387.241,358.621 C395.271,359.649 402.575,358.47 409.826,357.298 C420.453,355.581 430.989,353.879 444.195,357.417 C448.581,358.589 451.186,363.095 450.014,367.48 C448.843,371.865 444.337,374.471 439.951,373.299 C430.057,370.648 421.266,372.069 412.398,373.502 C401.73,375.226 390.967,376.963 377.361,373.423 C373.606,372.659 370.78,369.339 370.78,365.358 L370.78,301.71 C370.78,297.164 374.465,293.479 379.011,293.479 Z M277.468,426.382 L277.468,410.727 L271.492,410.727 L271.492,406.743 L287.764,406.743 L287.764,410.727 L281.788,410.727 L281.788,426.382 L277.468,426.382 Z M303.993,426.382 L303.993,406.743 L312.97,406.743 C315.458,406.743 317.366,407.407 318.694,408.735 C319.816,409.857 320.377,411.372 320.377,413.28 C320.377,416.291 318.974,418.321 316.169,419.368 L320.966,426.382 L315.916,426.382 L311.652,420.098 L308.313,420.098 L308.313,426.382 L303.993,426.382 Z M308.313,416.282 L312.69,416.282 C313.737,416.282 314.551,416.025 315.131,415.511 C315.71,414.996 316,414.309 316,413.449 C316,412.532 315.701,411.835 315.103,411.358 C314.504,410.881 313.672,410.643 312.606,410.643 L308.313,410.643 L308.313,416.282 Z M335.512,426.382 L343.928,406.603 L347.912,406.603 L356.329,426.382 L351.812,426.382 L350.016,421.977 L341.712,421.977 L339.916,426.382 L335.512,426.382 Z M343.255,418.162 L348.473,418.162 L345.864,411.793 L343.255,418.162 Z M375.728,426.522 L367.788,406.743 L372.557,406.743 L377.692,420.575 L382.826,406.743 L387.483,406.743 L379.543,426.522 L375.728,426.522 Z M403.431,426.382 L403.431,406.743 L418.244,406.743 L418.244,410.587 L407.724,410.587 L407.724,414.571 L416.982,414.571 L416.982,418.414 L407.724,418.414 L407.724,422.538 L418.385,422.538 L418.385,426.382 L403.431,426.382 Z M435.147,426.382 L435.147,406.743 L439.468,406.743 L439.468,422.454 L449.258,422.454 L449.258,426.382 L435.147,426.382 Z M278.775,293.479 L341.837,293.479 C346.383,293.479 350.068,297.164 350.068,301.71 C350.068,306.255 346.383,309.94 341.837,309.94 L287.005,309.94 L287.005,326.249 L328.61,326.249 C333.156,326.249 336.841,329.934 336.841,334.479 C336.841,339.025 333.156,342.71 328.61,342.71 L287.005,342.71 L287.005,358.621 C295.034,359.649 302.338,358.47 309.59,357.298 C320.217,355.581 330.752,353.879 343.959,357.417 C348.345,358.589 350.95,363.095 349.778,367.48 C348.607,371.865 344.101,374.471 339.715,373.299 C329.821,370.648 321.029,372.069 312.162,373.502 C301.494,375.226 290.731,376.963 277.125,373.423 C273.37,372.659 270.544,369.339 270.544,365.358 L270.544,301.71 C270.544,297.164 274.229,293.479 278.775,293.479 Z M220.371,355.669 C217.157,352.455 217.157,347.244 220.371,344.03 C223.585,340.817 228.796,340.817 232.01,344.03 L247.518,359.539 C250.732,362.752 250.732,367.963 247.518,371.177 C244.304,374.391 239.093,374.391 235.879,371.177 L220.371,355.669 Z" id="Fill-2"></path>
        </g>
    </g>
</svg>